<svg xmlns="http://www.w3.org/2000/svg" version="1.1" xmlns:xlink="http://www.w3.org/1999/xlink" xmlns:svgjs="http://svgjs.dev/svgjs" width="1440" height="560" preserveAspectRatio="none" viewBox="0 0 1440 560">
    <g mask="url(&quot;#SvgjsMask1021&quot;)" fill="none">
        <rect width="1440" height="560" x="0" y="0" fill="url(&quot;#SvgjsLinearGradient1022&quot;)"></rect>
        <path d="M0 61.58L10 39.47L20 85.27L30 60.56L40 27.53L50 52.04L60 4.69L70 61.86L80 93.3L90 83.5L100 104.23L110 170.04L120 139.86L130 151.3L140 105.49L150 150.74L160 176.4L170 176.46L180 149.78L190 106.54L200 100.21L210 76.59L220 61.11L230 70.58L240 115.27L250 152.19L260 133.46L270 76.16L280 113.88L290 176.15L300 227.15L310 232.14L320 200.39L330 188.98L340 141.92L350 176.04L360 135.65L370 174.22L380 240.26L390 263.53L400 266.34L410 249.52L420 313.3L430 289.41L440 257.35L450 322.99L460 337.8L470 373.16L480 334.99L490 354.19L500 330.04L510 312.33L520 346.12L530 351.41L540 316.24L550 324.42L560 392.5L570 379.14L580 322.5L590 313.41L600 354.35L610 315.66L620 376.09L630 406.73L640 388.36L650 346.08L660 318.7L670 364.84L680 318.37L690 322.03L700 266.6L710 321.92L720 341.67L730 403.58L740 456.71L750 458.18L760 483.12L770 438.03L780 384.53L790 340.55L800 305.07L810 339.67L820 314.7L830 347.71L840 413.65L850 364.24L860 429.76L870 407.79L880 339.09L890 361.4L900 417.96L910 440.76L920 506.28L930 527.03L940 554.61L950 486.95L960 530.97L970 546.28L980 523.13L990 476.03L1000 472.77L1010 510.16L1020 541.12L1030 527.85L1040 538.18L1050 531.52L1060 465.93L1070 400.25L1080 393.55L1090 434.84L1100 371.61L1110 356.55L1120 310.66L1130 254.03L1140 321.79L1150 324.52L1160 346.61L1170 376.29L1180 429.15L1190 402.63L1200 430.84L1210 444.39L1220 484.05L1230 548.75L1240 516.51L1250 546.12L1260 498.33L1270 500.36L1280 492.83L1290 490.65L1300 554.89L1310 526.63L1320 544.7L1330 477.82L1340 446.03L1350 500.96L1360 465.69L1370 409.33L1380 375.06L1390 428.41L1400 425.62L1410 421.77L1420 465.3L1430 413.91L1440 457.53" stroke="#224b75" stroke-width="2"></path>
        <path d="M0 61.58L10 39.47L20 85.27L30 60.56L40 27.53L50 52.04L60 4.69L70 61.86L80 93.3L90 83.5L100 104.23L110 170.04L120 139.86L130 151.3L140 105.49L150 150.74L160 176.4L170 176.46L180 149.78L190 106.54L200 100.21L210 76.59L220 61.11L230 70.58L240 115.27L250 152.19L260 133.46L270 76.16L280 113.88L290 176.15L300 227.15L310 232.14L320 200.39L330 188.98L340 141.92L350 176.04L360 135.65L370 174.22L380 240.26L390 263.53L400 266.34L410 249.52L420 313.3L430 289.41L440 257.35L450 322.99L460 337.8L470 373.16L480 334.99L490 354.19L500 330.04L510 312.33L520 346.12L530 351.41L540 316.24L550 324.42L560 392.5L570 379.14L580 322.5L590 313.41L600 354.35L610 315.66L620 376.09L630 406.73L640 388.36L650 346.08L660 318.7L670 364.84L680 318.37L690 322.03L700 266.6L710 321.92L720 341.67L730 403.58L740 456.71L750 458.18L760 483.12L770 438.03L780 384.53L790 340.55L800 305.07L810 339.67L820 314.7L830 347.71L840 413.65L850 364.24L860 429.76L870 407.79L880 339.09L890 361.4L900 417.96L910 440.76L920 506.28L930 527.03L940 554.61L950 486.95L960 530.97L970 546.28L980 523.13L990 476.03L1000 472.77L1010 510.16L1020 541.12L1030 527.85L1040 538.18L1050 531.52L1060 465.93L1070 400.25L1080 393.55L1090 434.84L1100 371.61L1110 356.55L1120 310.66L1130 254.03L1140 321.79L1150 324.52L1160 346.61L1170 376.29L1180 429.15L1190 402.63L1200 430.84L1210 444.39L1220 484.05L1230 548.75L1240 516.51L1250 546.12L1260 498.33L1270 500.36L1280 492.83L1290 490.65L1300 554.89L1310 526.63L1320 544.7L1330 477.82L1340 446.03L1350 500.96L1360 465.69L1370 409.33L1380 375.06L1390 428.41L1400 425.62L1410 421.77L1420 465.3L1430 413.91L1440 457.53L1440 560L0 560z" fill="url(&quot;#SvgjsLinearGradient1023&quot;)"></path>
    </g>
    <defs>
        <mask id="SvgjsMask1021">
            <rect width="1440" height="560" fill="#ffffff"></rect>
        </mask>
        <linearGradient x1="15.28%" y1="-39.29%" x2="84.72%" y2="139.29%" gradientUnits="userSpaceOnUse" id="SvgjsLinearGradient1022">
            <stop stop-color="#0e2a47" offset="0"></stop>
            <stop stop-color="rgba(0, 56, 61, 1)" offset="0.84"></stop>
            <stop stop-color="rgba(0, 56, 61, 1)" offset="0.84"></stop>
            <stop stop-color="rgba(0, 56, 61, 1)" offset="1"></stop>
        </linearGradient>
        <linearGradient x1="50%" y1="0%" x2="50%" y2="100%" id="SvgjsLinearGradient1023">
            <stop stop-opacity="0.65" stop-color="#224b75" offset="0"></stop>
            <stop stop-opacity="0" stop-color="#508dcc" offset="0.8"></stop>
        </linearGradient>
    </defs>
</svg>